<?xml version="1.0" standalone="no"?><!DOCTYPE svg PUBLIC "-//W3C//DTD SVG 1.1//EN" "http://www.w3.org/Graphics/SVG/1.1/DTD/svg11.dtd"><svg t="1515140593525" class="icon" style="" viewBox="0 0 1024 1024" version="1.1" xmlns="http://www.w3.org/2000/svg" p-id="5335" xmlns:xlink="http://www.w3.org/1999/xlink" width="200" height="200"><defs><style type="text/css"></style></defs><path d="M466.641 486.68c36.8 1.76 72.561 19.6 103.6 51.761l0.48 0.479c9.76 10.24 26 10.56 36.16 0.8 10.24-9.76 10.559-26 0.799-36.159l-0.559-0.561c-17.84-18.48-37.041-33.28-57.281-44.32 39.441-27.84 65.201-73.84 65.201-125.68 0-84.8-68.961-153.76-153.761-153.76S307.521 248.2 307.521 333c0 51.68 25.6 97.44 64.8 125.36-5.28 2.88-10.4 6-15.6 9.36-30.48 20-57.601 48.4-80.72 84.32-46.16 71.68-71.6 166.56-71.6 267.12 0 14.16 11.44 25.6 25.6 25.6 14.16 0 25.6-11.439 25.6-25.6 0-90.88 22.56-175.92 63.441-239.44 37.279-58 85.359-90.8 135.92-93.04 2.079 0.08 4.159 0.16 6.319 0.16 1.759-0.08 3.6-0.16 5.36-0.16zM358.721 333c0-56.56 46-102.56 102.56-102.56s102.56 46 102.56 102.56c0 54.72-43.119 99.6-97.119 102.4-2.08-0.08-4.16-0.16-6.24-0.16-1.76 0-3.44 0-5.2 0.08-53.761-3.12-96.561-47.84-96.561-102.32z" p-id="5336"></path><path d="M512.4 614.76c0 14.16 11.439 25.601 25.6 25.601h256c14.16 0 25.6-11.44 25.6-25.601s-11.439-25.6-25.6-25.6H538c-14.16 0-25.6 11.44-25.6 25.6z m76.881 76.56c-14.16 0-25.602 11.439-25.602 25.6s11.441 25.6 25.602 25.6h153.6c14.16 0 25.6-11.439 25.6-25.6s-11.439-25.6-25.6-25.6h-153.6zM794 793.56H538c-14.16 0-25.6 11.44-25.6 25.601s11.439 25.6 25.6 25.6h256c14.16 0 25.6-11.439 25.6-25.6S808.16 793.56 794 793.56z" p-id="5337"></path></svg>